grf
version=1
nRows=6
nColumns=37
inDegrees=no
endheader
time	ground_force_1_vx	ground_force_1_vy	ground_force_1_vz	ground_force_1_px	ground_force_1_py	ground_force_1_pz	ground_moment_1_mx	ground_moment_1_my	ground_moment_1_mz	ground_force_2_vx	ground_force_2_vy	ground_force_2_vz	ground_force_2_px	ground_force_2_py	ground_force_2_pz	ground_moment_2_mx	ground_moment_2_my	ground_moment_2_mz	ground_force_3_vx	ground_force_3_vy	ground_force_3_vz	ground_force_3_px	ground_force_3_py	ground_force_3_pz	ground_moment_3_mx	ground_moment_3_my	ground_moment_3_mz	ground_force_4_vx	ground_force_4_vy	ground_force_4_vz	ground_force_4_px	ground_force_4_py	ground_force_4_pz	ground_moment_4_mx	ground_moment_4_my	ground_moment_4_mz
      1.61000000	      0.00000000	     -0.00000000	      0.00000000	      0.00000000	      0.00000000	      0.00000000	      0.00000000	      0.00000000	      0.00000000	      6.23284101	     30.12013435	   -398.71661377	   -333.16421875	  -1129.40523175	      0.00000000	      0.00000000	      0.00000000	   9243.55029420	     14.03992389	    -30.17649201	   -412.13836670	   -336.67782253	   -666.33905233	      0.00000000	      0.00000000	      0.00000000	  -3760.18852149	      0.00000000	     -0.00000000	      0.00000000	      0.00000000	      0.00000000	      0.00000000	      0.00000000	      0.00000000	      0.00000000
      1.62000000	      0.00000000	     -0.00000000	      0.00000000	      0.00000000	      0.00000000	      0.00000000	      0.00000000	      0.00000000	      0.00000000	     10.02756214	     32.67490768	   -405.35559082	   -334.73141017	  -1130.05479281	      0.00000000	      0.00000000	      0.00000000	   9419.53829488	     15.89113944	    -28.04541155	   -415.93334961	   -336.18864307	   -666.26763193	      0.00000000	      0.00000000	     -0.00000000	  -4231.87209435	      0.00000000	     -0.00000000	      0.00000000	      0.00000000	      0.00000000	      0.00000000	      0.00000000	      0.00000000	      0.00000000
      1.63000000	      0.00000000	     -0.00000000	      0.00000000	      0.00000000	      0.00000000	      0.00000000	      0.00000000	      0.00000000	      0.00000000	     13.75495720	     36.02078247	   -409.47943115	   -335.56524270	  -1129.76948912	      0.00000000	      0.00000000	      0.00000000	   9404.70808323	     17.80681189	    -26.35578693	   -420.39636230	   -335.44983940	   -666.15447119	      0.00000000	      0.00000000	     -0.00000000	  -4403.79337320	      0.00000000	     -0.00000000	      0.00000000	      0.00000000	      0.00000000	      0.00000000	      0.00000000	      0.00000000	      0.00000000
      1.64000000	      0.00000000	     -0.00000000	      0.00000000	      0.00000000	      0.00000000	      0.00000000	      0.00000000	      0.00000000	      0.00000000	     15.93194389	     35.91955566	   -408.26220703	   -336.70399858	  -1129.01256995	      0.00000000	      0.00000000	      0.00000000	   9334.12019847	     17.78222428	    -26.14322055	   -427.40942383	   -334.71935653	   -666.71974467	      0.00000000	      0.00000000	     -0.00000000	  -4946.81151740	      0.00000000	     -0.00000000	      0.00000000	      0.00000000	      0.00000000	      0.00000000	      0.00000000	      0.00000000	      0.00000000
      1.65000000	      0.00000000	     -0.00000000	      0.00000000	      0.00000000	      0.00000000	      0.00000000	      0.00000000	      0.00000000	      0.00000000	     18.02318954	     33.16886139	   -412.01416016	   -337.73023151	  -1129.92651501	      0.00000000	      0.00000000	      0.00000000	   9247.30974396	     14.94301082	    -27.12973916	   -434.59713745	   -333.52798297	   -665.76566266	      0.00000000	     -0.00000000	     -0.00000000	  -5486.39245284	      0.00000000	     -0.00000000	      0.00000000	      0.00000000	      0.00000000	      0.00000000	      0.00000000	      0.00000000	      0.00000000
      1.66000000	      0.00000000	     -0.00000000	      0.00000000	      0.00000000	      0.00000000	      0.00000000	      0.00000000	      0.00000000	      0.00000000	     18.81095505	     29.71581268	   -410.74829102	   -338.99048813	  -1128.77553234	      0.00000000	      0.00000000	      0.00000000	   9243.95150171	     11.55715219	    -28.20132929	   -435.48950195	   -331.57699003	   -665.65495179	      0.00000000	      0.00000000	     -0.00000000	  -5988.11067076	      0.00000000	     -0.00000000	      0.00000000	      0.00000000	      0.00000000	      0.00000000	      0.00000000	      0.00000000	      0.00000000
